<mxfile host="app.diagrams.net" agent="Mozilla/5.0 (Windows NT 10.0; Win64; x64) AppleWebKit/537.36 (KHTML, like Gecko) Chrome/140.0.0.0 Safari/537.36" version="28.2.5">
  <diagram name="PÃ¡gina-1" id="JPcZn65q2pCtWcq3TTtS">
    <mxGraphModel dx="1303" dy="724" grid="1" gridSize="10" guides="1" tooltips="1" connect="1" arrows="1" fold="1" page="1" pageScale="1" pageWidth="1169" pageHeight="827" math="0" shadow="0">
      <root>
        <mxCell id="0" />
        <mxCell id="1" parent="0" />
        <mxCell id="9aUHmwyhnExBrmY6oB96-1" value="&lt;div&gt;&lt;span style=&quot;background-color: transparent; color: light-dark(rgb(0, 0, 0), rgb(255, 255, 255));&quot;&gt;Usuario&lt;/span&gt;&lt;/div&gt;" style="swimlane;fontStyle=1;align=center;verticalAlign=top;childLayout=stackLayout;horizontal=1;startSize=30;horizontalStack=0;resizeParent=1;resizeParentMax=0;resizeLast=0;collapsible=1;marginBottom=0;whiteSpace=wrap;html=1;" vertex="1" parent="1">
          <mxGeometry x="160" y="120" width="240" height="160" as="geometry" />
        </mxCell>
        <mxCell id="9aUHmwyhnExBrmY6oB96-2" value="- codigo: int&lt;div&gt;- nome: String&lt;/div&gt;&lt;div&gt;- email: String&lt;/div&gt;&lt;div&gt;- senha: String&lt;/div&gt;" style="text;strokeColor=none;fillColor=none;align=left;verticalAlign=top;spacingLeft=4;spacingRight=4;overflow=hidden;rotatable=0;points=[[0,0.5],[1,0.5]];portConstraint=eastwest;whiteSpace=wrap;html=1;" vertex="1" parent="9aUHmwyhnExBrmY6oB96-1">
          <mxGeometry y="30" width="240" height="70" as="geometry" />
        </mxCell>
        <mxCell id="9aUHmwyhnExBrmY6oB96-3" value="" style="line;strokeWidth=1;fillColor=none;align=left;verticalAlign=middle;spacingTop=-1;spacingLeft=3;spacingRight=3;rotatable=0;labelPosition=right;points=[];portConstraint=eastwest;strokeColor=inherit;" vertex="1" parent="9aUHmwyhnExBrmY6oB96-1">
          <mxGeometry y="100" width="240" height="8" as="geometry" />
        </mxCell>
        <mxCell id="9aUHmwyhnExBrmY6oB96-4" value="+ login(): boolean&lt;div&gt;+ adicionarContato(c: Contato): void&lt;/div&gt;" style="text;strokeColor=none;fillColor=none;align=left;verticalAlign=top;spacingLeft=4;spacingRight=4;overflow=hidden;rotatable=0;points=[[0,0.5],[1,0.5]];portConstraint=eastwest;whiteSpace=wrap;html=1;" vertex="1" parent="9aUHmwyhnExBrmY6oB96-1">
          <mxGeometry y="108" width="240" height="52" as="geometry" />
        </mxCell>
        <mxCell id="9aUHmwyhnExBrmY6oB96-9" value="Contato" style="swimlane;fontStyle=1;align=center;verticalAlign=top;childLayout=stackLayout;horizontal=1;startSize=26;horizontalStack=0;resizeParent=1;resizeParentMax=0;resizeLast=0;collapsible=1;marginBottom=0;whiteSpace=wrap;html=1;" vertex="1" parent="1">
          <mxGeometry x="520" y="120" width="240" height="160" as="geometry" />
        </mxCell>
        <mxCell id="9aUHmwyhnExBrmY6oB96-10" value="- nome: String&lt;div&gt;- telefone: String&lt;/div&gt;&lt;div&gt;- email: String&lt;/div&gt;" style="text;strokeColor=none;fillColor=none;align=left;verticalAlign=top;spacingLeft=4;spacingRight=4;overflow=hidden;rotatable=0;points=[[0,0.5],[1,0.5]];portConstraint=eastwest;whiteSpace=wrap;html=1;" vertex="1" parent="9aUHmwyhnExBrmY6oB96-9">
          <mxGeometry y="26" width="240" height="74" as="geometry" />
        </mxCell>
        <mxCell id="9aUHmwyhnExBrmY6oB96-11" value="" style="line;strokeWidth=1;fillColor=none;align=left;verticalAlign=middle;spacingTop=-1;spacingLeft=3;spacingRight=3;rotatable=0;labelPosition=right;points=[];portConstraint=eastwest;strokeColor=inherit;" vertex="1" parent="9aUHmwyhnExBrmY6oB96-9">
          <mxGeometry y="100" width="240" height="8" as="geometry" />
        </mxCell>
        <mxCell id="9aUHmwyhnExBrmY6oB96-12" value="+ adicionarEmail(e: Email): void&lt;div&gt;+ adicionarEndereco(end: Endereco): void&lt;/div&gt;" style="text;strokeColor=none;fillColor=none;align=left;verticalAlign=top;spacingLeft=4;spacingRight=4;overflow=hidden;rotatable=0;points=[[0,0.5],[1,0.5]];portConstraint=eastwest;whiteSpace=wrap;html=1;" vertex="1" parent="9aUHmwyhnExBrmY6oB96-9">
          <mxGeometry y="108" width="240" height="52" as="geometry" />
        </mxCell>
        <mxCell id="9aUHmwyhnExBrmY6oB96-13" value="Email" style="swimlane;fontStyle=1;align=center;verticalAlign=top;childLayout=stackLayout;horizontal=1;startSize=26;horizontalStack=0;resizeParent=1;resizeParentMax=0;resizeLast=0;collapsible=1;marginBottom=0;whiteSpace=wrap;html=1;" vertex="1" parent="1">
          <mxGeometry x="520" y="440" width="240" height="170" as="geometry" />
        </mxCell>
        <mxCell id="9aUHmwyhnExBrmY6oB96-14" value="- email: string&lt;div&gt;- TipoEmail: tipo&lt;/div&gt;" style="text;strokeColor=none;fillColor=none;align=left;verticalAlign=top;spacingLeft=4;spacingRight=4;overflow=hidden;rotatable=0;points=[[0,0.5],[1,0.5]];portConstraint=eastwest;whiteSpace=wrap;html=1;" vertex="1" parent="9aUHmwyhnExBrmY6oB96-13">
          <mxGeometry y="26" width="240" height="34" as="geometry" />
        </mxCell>
        <mxCell id="9aUHmwyhnExBrmY6oB96-15" value="" style="line;strokeWidth=1;fillColor=none;align=left;verticalAlign=middle;spacingTop=-1;spacingLeft=3;spacingRight=3;rotatable=0;labelPosition=right;points=[];portConstraint=eastwest;strokeColor=inherit;" vertex="1" parent="9aUHmwyhnExBrmY6oB96-13">
          <mxGeometry y="60" width="240" height="110" as="geometry" />
        </mxCell>
        <mxCell id="9aUHmwyhnExBrmY6oB96-21" value="" style="fontStyle=1;align=center;verticalAlign=middle;childLayout=stackLayout;horizontal=1;horizontalStack=0;resizeParent=1;resizeParentMax=0;resizeLast=0;marginBottom=0;" vertex="1" parent="1">
          <mxGeometry x="540" y="660" width="200" height="96" as="geometry" />
        </mxCell>
        <mxCell id="9aUHmwyhnExBrmY6oB96-22" value="&amp;lt;&amp;lt;enumeration&amp;gt;&amp;gt;" style="html=1;align=center;spacing=0;verticalAlign=middle;strokeColor=none;fillColor=none;whiteSpace=wrap;" vertex="1" parent="9aUHmwyhnExBrmY6oB96-21">
          <mxGeometry width="200" height="20" as="geometry" />
        </mxCell>
        <mxCell id="9aUHmwyhnExBrmY6oB96-23" value="TipoEmail" style="html=1;align=center;spacing=0;verticalAlign=middle;strokeColor=none;fillColor=none;whiteSpace=wrap;fontStyle=1;" vertex="1" parent="9aUHmwyhnExBrmY6oB96-21">
          <mxGeometry y="20" width="200" height="14" as="geometry" />
        </mxCell>
        <mxCell id="9aUHmwyhnExBrmY6oB96-24" value="" style="line;strokeWidth=0.25;fillColor=none;align=left;verticalAlign=middle;spacingTop=-1;spacingLeft=3;spacingRight=3;rotatable=0;labelPosition=right;points=[];portConstraint=eastwest;" vertex="1" parent="9aUHmwyhnExBrmY6oB96-21">
          <mxGeometry y="34" width="200" height="8" as="geometry" />
        </mxCell>
        <mxCell id="9aUHmwyhnExBrmY6oB96-25" value="Comercial" style="html=1;align=left;spacing=0;spacingLeft=8;verticalAlign=middle;strokeColor=none;fillColor=none;whiteSpace=wrap;" vertex="1" parent="9aUHmwyhnExBrmY6oB96-21">
          <mxGeometry y="42" width="200" height="16" as="geometry" />
        </mxCell>
        <mxCell id="9aUHmwyhnExBrmY6oB96-26" value="Particular" style="html=1;align=left;spacing=0;spacingLeft=8;verticalAlign=middle;strokeColor=none;fillColor=none;whiteSpace=wrap;" vertex="1" parent="9aUHmwyhnExBrmY6oB96-21">
          <mxGeometry y="58" width="200" height="16" as="geometry" />
        </mxCell>
        <mxCell id="9aUHmwyhnExBrmY6oB96-29" value="Outros" style="html=1;align=left;spacing=0;spacingLeft=8;verticalAlign=middle;strokeColor=none;fillColor=none;whiteSpace=wrap;" vertex="1" parent="9aUHmwyhnExBrmY6oB96-21">
          <mxGeometry y="74" width="200" height="16" as="geometry" />
        </mxCell>
        <mxCell id="9aUHmwyhnExBrmY6oB96-27" value="" style="html=1;align=left;spacing=0;spacingLeft=8;verticalAlign=middle;strokeColor=none;fillColor=none;whiteSpace=wrap;" vertex="1" parent="9aUHmwyhnExBrmY6oB96-21">
          <mxGeometry y="90" width="200" height="6" as="geometry" />
        </mxCell>
        <mxCell id="9aUHmwyhnExBrmY6oB96-35" value="Tem" style="endArrow=none;html=1;startArrow=diamondThin;startFill=0;edgeStyle=orthogonalEdgeStyle;rounded=0;fontSize=12;curved=1;endFill=0;" edge="1" parent="1">
          <mxGeometry relative="1" as="geometry">
            <mxPoint x="400" y="190" as="sourcePoint" />
            <mxPoint x="520" y="190" as="targetPoint" />
          </mxGeometry>
        </mxCell>
        <mxCell id="9aUHmwyhnExBrmY6oB96-36" value="1" style="edgeLabel;resizable=0;html=1;align=left;verticalAlign=top;" connectable="0" vertex="1" parent="9aUHmwyhnExBrmY6oB96-35">
          <mxGeometry x="-1" relative="1" as="geometry" />
        </mxCell>
        <mxCell id="9aUHmwyhnExBrmY6oB96-37" value="0 .. *" style="edgeLabel;resizable=0;html=1;align=right;verticalAlign=top;" connectable="0" vertex="1" parent="9aUHmwyhnExBrmY6oB96-35">
          <mxGeometry x="1" relative="1" as="geometry" />
        </mxCell>
        <mxCell id="9aUHmwyhnExBrmY6oB96-38" value="Possui" style="endArrow=none;html=1;endSize=12;startArrow=diamondThin;startSize=14;startFill=0;edgeStyle=orthogonalEdgeStyle;rounded=0;fontSize=12;curved=1;exitX=0.497;exitY=0.986;exitDx=0;exitDy=0;exitPerimeter=0;entryX=0.5;entryY=0;entryDx=0;entryDy=0;endFill=0;" edge="1" parent="1" source="9aUHmwyhnExBrmY6oB96-12" target="9aUHmwyhnExBrmY6oB96-13">
          <mxGeometry relative="1" as="geometry">
            <mxPoint x="490" y="390" as="sourcePoint" />
            <mxPoint x="650" y="390" as="targetPoint" />
          </mxGeometry>
        </mxCell>
        <mxCell id="9aUHmwyhnExBrmY6oB96-39" value="1" style="edgeLabel;resizable=0;html=1;align=left;verticalAlign=top;" connectable="0" vertex="1" parent="9aUHmwyhnExBrmY6oB96-38">
          <mxGeometry x="-1" relative="1" as="geometry">
            <mxPoint x="11" y="11" as="offset" />
          </mxGeometry>
        </mxCell>
        <mxCell id="9aUHmwyhnExBrmY6oB96-40" value="1 .. *" style="edgeLabel;resizable=0;html=1;align=right;verticalAlign=top;" connectable="0" vertex="1" parent="9aUHmwyhnExBrmY6oB96-38">
          <mxGeometry x="1" relative="1" as="geometry">
            <mxPoint x="30" y="-40" as="offset" />
          </mxGeometry>
        </mxCell>
        <mxCell id="9aUHmwyhnExBrmY6oB96-41" value="" style="endArrow=classicThin;html=1;endSize=12;startArrow=none;startSize=14;startFill=0;edgeStyle=orthogonalEdgeStyle;rounded=0;fontSize=12;curved=1;entryX=0.5;entryY=0;entryDx=0;entryDy=0;exitX=0.5;exitY=1;exitDx=0;exitDy=0;endFill=1;" edge="1" parent="1" source="9aUHmwyhnExBrmY6oB96-13" target="9aUHmwyhnExBrmY6oB96-22">
          <mxGeometry relative="1" as="geometry">
            <mxPoint x="360" y="630" as="sourcePoint" />
            <mxPoint x="520" y="630" as="targetPoint" />
          </mxGeometry>
        </mxCell>
      </root>
    </mxGraphModel>
  </diagram>
</mxfile>
